<?xml version="1.0" encoding="utf-8"?>
<!-- Generator: Adobe Illustrator 23.0.3, SVG Export Plug-In . SVG Version: 6.00 Build 0)  -->
<svg version="1.1" id="Layer_1" xmlns="http://www.w3.org/2000/svg" xmlns:xlink="http://www.w3.org/1999/xlink" x="0px" y="0px"
	 viewBox="0 0 367 341" style="enable-background:new 0 0 367 341;" xml:space="preserve">
<style type="text/css">
	.st0{fill:#FCDBC9;}
	.st1{fill:#A7A5A6;}
	.st2{fill:#231F20;}
	.st3{fill:#009B72;}
</style>
<g>
	<path class="st0" d="M195.75,173.31c-4.12,5.61-10.22,9.67-17.29,11.09c-1.53,0.31-3.11,0.46-4.71,0.52
		c-0.3,0.01-0.59,0.04-0.9,0.04c-1.15,0-2.28-0.09-3.4-0.22c-14.08-1.69-25.04-13.68-25.04-28.21c0-15.68,12.76-28.44,28.43-28.44
		c8.5,0,16.12,3.77,21.33,9.7c0.07,0.08,0.14,0.15,0.21,0.23c0.86,0.99,1.64,2.04,2.35,3.14c0.87,1.35,1.65,2.77,2.29,4.26
		c1.45,3.41,2.26,7.16,2.26,11.1C201.28,162.8,199.21,168.59,195.75,173.31 M93.75,184.73c-1.12,0.14-2.25,0.22-3.4,0.22
		c-0.3,0-0.59-0.03-0.89-0.04c-1.61-0.05-3.19-0.21-4.72-0.52c-7.07-1.42-13.17-5.48-17.29-11.09c-3.46-4.72-5.54-10.5-5.54-16.79
		c0-3.94,0.81-7.69,2.26-11.1c0.64-1.49,1.41-2.91,2.28-4.26c0.72-1.11,1.5-2.15,2.35-3.14c0.07-0.08,0.14-0.16,0.22-0.24
		c5.21-5.93,12.83-9.7,21.33-9.7c15.68,0,28.43,12.76,28.43,28.44C118.78,171.05,107.82,183.04,93.75,184.73 M225.13,140.82
		c-1.05-7.73-7.67-13.7-15.69-13.7c-2.88,0-5.57,0.78-7.89,2.12c-0.69-0.73-1.4-1.43-2.14-2.11c-2.65-23.46-17.24-43.36-37.54-53.45
		c4.73-6.63,7.53-14.73,7.53-23.47h-5.59c0,7.94-2.67,15.27-7.16,21.14c-7.76-3.07-16.21-4.77-25.05-4.77
		c-3.45,0-6.84,0.26-10.16,0.76c-3.25-10.11-10.43-18.94-20.7-23.97l-2.46,5.02c8.63,4.23,14.74,11.57,17.64,20.02
		c-27.66,6.53-48.87,29.95-52.12,58.72c-0.74,0.67-1.46,1.38-2.15,2.11c-2.32-1.34-5.02-2.12-7.89-2.12
		c-8.02,0-14.63,5.96-15.69,13.7h-4.91v26.72h4.91c1.07,7.71,7.67,13.66,15.68,13.66c1.74,0,3.42-0.29,4.99-0.81
		c7.24,9.57,18.71,15.76,31.61,15.76c3.16,0,6.22-0.38,9.17-1.08c3.04,1.62,6.21,3.02,9.5,4.17c-0.98,1.96-1.54,4.07-1.54,6.28
		v48.32h8.75v29.61h30.76v-29.61h8.75v-48.32c0-2.21-0.56-4.32-1.54-6.27c3.29-1.16,6.46-2.55,9.5-4.17
		c2.94,0.7,6.01,1.08,9.16,1.08c12.89,0,24.37-6.2,31.61-15.76c1.57,0.52,3.24,0.81,4.98,0.81c8.01,0,14.61-5.95,15.68-13.66h4.91
		v-26.72H225.13z M225.13,140.82"/>
	<path class="st0" d="M94.34,142.54c-3.09,0-5.6,2.51-5.6,5.59c0,3.09,2.51,5.59,5.6,5.59s5.59-2.5,5.59-5.59
		C99.94,145.04,97.43,142.54,94.34,142.54"/>
	<path class="st0" d="M173.12,143.12c-4.06,0-7.34,3.29-7.34,7.34c0,4.05,3.29,7.34,7.34,7.34c4.05,0,7.34-3.29,7.34-7.34
		C180.46,146.41,177.18,143.12,173.12,143.12"/>
	<path class="st1" d="M126.75,270.03h-5.58v-5.59h5.58V270.03z M136.45,264.44h5.59v5.59h-5.59V264.44z M116.21,283.43h30.76v-29.61
		h-30.76V283.43z M116.21,283.43"/>
	<path class="st2" d="M131.6,203.46c-5.53,0-10.9-0.68-16.04-1.92c-2.23-0.54-4.41-1.19-6.55-1.94c-0.99,1.96-1.54,4.07-1.54,6.28
		v48.32h48.26v-48.32c0-2.21-0.56-4.32-1.54-6.27c-2.14,0.75-4.32,1.4-6.55,1.94C142.49,202.79,137.12,203.46,131.6,203.46"/>
	<path class="st3" d="M225.29,142.97c0-0.73-0.07-1.45-0.16-2.16c-1.05-7.73-7.67-13.7-15.69-13.7c-2.88,0-5.57,0.78-7.89,2.12
		c6.76,7.11,10.93,16.71,10.93,27.28c0,8.95-2.99,17.22-8.02,23.86c1.57,0.52,3.24,0.81,4.98,0.81c8.01,0,14.61-5.95,15.68-13.66
		c0.1-0.72,0.17-1.45,0.17-2.19V142.97z M225.29,142.97"/>
	<path class="st3" d="M61.64,129.24c-2.32-1.34-5.02-2.12-7.89-2.12c-8.02,0-14.63,5.96-15.69,13.7c-0.1,0.71-0.16,1.42-0.16,2.16
		v22.37c0,0.75,0.07,1.47,0.17,2.19c1.07,7.71,7.67,13.66,15.68,13.66c1.74,0,3.42-0.29,4.99-0.81c-5.03-6.64-8.01-14.91-8.01-23.86
		C50.72,145.96,54.88,136.35,61.64,129.24"/>
	<path class="st0" d="M158.2,78.12c-7.38,7.73-17.77,12.57-29.27,12.57v-5.59c9.12,0,17.43-3.52,23.66-9.28
		c-6.57-2.34-13.63-3.63-20.99-3.63c-2.99,0-5.93,0.22-8.81,0.63c1.42,8.13,0.39,16.75-3.5,24.71l-5.02-2.46
		c3.34-6.83,4.23-14.24,3.03-21.22c-23.71,5.56-42.28,24.62-47.11,48.59c5.91-3.51,12.8-5.53,20.16-5.53
		c17.56,0,32.48,11.49,37.66,27.34h7.18c5.18-15.86,20.1-27.34,37.66-27.34c7.36,0,14.25,2.02,20.17,5.54
		C189.05,102.79,175.87,86.44,158.2,78.12"/>
	<path class="st2" d="M37.9,142.97c0-0.73,0.07-1.45,0.16-2.16h-4.91v26.72h4.91c-0.1-0.72-0.17-1.45-0.17-2.19V142.97z
		 M37.9,142.97"/>
	<path class="st2" d="M225.13,140.82c0.09,0.71,0.16,1.42,0.16,2.16v22.37c0,0.75-0.07,1.47-0.17,2.19h4.91v-26.72H225.13z
		 M225.13,140.82"/>
	<path class="st2" d="M94.34,142.54c-3.09,0-5.59,2.51-5.59,5.59c0,3.09,2.5,5.59,5.59,5.59c3.09,0,5.59-2.5,5.59-5.59
		C99.94,145.04,97.43,142.54,94.34,142.54"/>
	<path class="st2" d="M173.12,143.12c-4.06,0-7.34,3.29-7.34,7.34c0,4.05,3.29,7.34,7.34,7.34c4.05,0,7.34-3.29,7.34-7.34
		C180.46,146.41,177.18,143.12,173.12,143.12"/>
	<path class="st2" d="M195.75,173.31c-4.12,5.61-10.22,9.67-17.29,11.09c-1.53,0.31-3.11,0.46-4.71,0.52
		c-0.3,0.01-0.59,0.04-0.9,0.04c-1.15,0-2.28-0.09-3.4-0.22c-14.08-1.69-25.04-13.68-25.04-28.21c0-15.68,12.76-28.43,28.43-28.43
		c8.5,0,16.12,3.77,21.33,9.7c0.07,0.08,0.14,0.15,0.21,0.23c0.86,0.99,1.64,2.04,2.35,3.14c0.87,1.35,1.65,2.77,2.29,4.26
		c1.45,3.41,2.26,7.16,2.26,11.1C201.28,162.8,199.21,168.59,195.75,173.31 M93.74,184.73c-1.12,0.14-2.25,0.22-3.4,0.22
		c-0.3,0-0.59-0.03-0.89-0.04c-1.61-0.05-3.19-0.21-4.72-0.52c-7.07-1.42-13.17-5.48-17.29-11.09c-3.46-4.72-5.53-10.5-5.53-16.79
		c0-3.94,0.8-7.69,2.26-11.1c0.64-1.49,1.41-2.91,2.28-4.26c0.72-1.11,1.5-2.15,2.35-3.14c0.07-0.08,0.14-0.16,0.22-0.24
		c5.21-5.93,12.83-9.69,21.33-9.69c15.68,0,28.43,12.75,28.43,28.43C118.78,171.05,107.82,183.04,93.74,184.73 M201.55,129.24
		c-0.69-0.73-1.4-1.43-2.14-2.11c-1-0.91-2.06-1.77-3.16-2.57c-1.04-0.76-2.12-1.47-3.23-2.13c-5.91-3.51-12.8-5.54-20.17-5.54
		c-17.56,0-32.48,11.49-37.66,27.34h-7.18c-5.18-15.86-20.1-27.34-37.66-27.34c-7.36,0-14.25,2.02-20.16,5.54
		c-1.11,0.66-2.19,1.37-3.23,2.13c-1.1,0.8-2.16,1.66-3.16,2.57c-0.75,0.67-1.46,1.38-2.15,2.11c-6.76,7.11-10.93,16.71-10.93,27.28
		c0,8.95,2.99,17.22,8.02,23.86c7.24,9.57,18.71,15.76,31.61,15.76c3.16,0,6.22-0.38,9.17-1.08c1.32-0.32,2.62-0.7,3.88-1.14
		c1.23-0.43,2.43-0.92,3.6-1.46c13.55-6.3,22.97-20.04,22.97-35.94c0-0.37-0.02-0.73-0.03-1.09h3.32c-0.01,0.36-0.03,0.72-0.03,1.09
		c0,15.9,9.42,29.64,22.98,35.94c1.17,0.54,2.37,1.04,3.59,1.46c1.27,0.45,2.57,0.82,3.89,1.14c2.94,0.7,6.01,1.08,9.16,1.08
		c12.89,0,24.37-6.2,31.61-15.76c5.03-6.64,8.02-14.91,8.02-23.86C212.47,145.96,208.31,136.35,201.55,129.24"/>
	<path class="st0" d="M146.79,187.04c-8.4,8.4-21.99,8.4-30.4,0H146.79z M131.6,197.5c4.3,0,8.5-0.43,12.56-1.27
		c4.18-0.85,8.21-2.13,12.05-3.77c-13.56-6.3-22.98-20.04-22.98-35.94c0-0.37,0.02-0.73,0.03-1.09h-3.32
		c0.01,0.36,0.03,0.72,0.03,1.09c0,15.9-9.42,29.64-22.97,35.94c3.84,1.64,7.86,2.92,12.04,3.77
		C123.09,197.07,127.29,197.5,131.6,197.5"/>
	<path class="st2" d="M156.2,192.46c-3.84,1.64-7.86,2.92-12.05,3.77c-4.06,0.83-8.26,1.27-12.56,1.27c-4.3,0-8.5-0.43-12.56-1.27
		c-4.18-0.86-8.21-2.13-12.04-3.77c-1.17,0.54-2.37,1.03-3.6,1.46c-1.27,0.45-2.56,0.82-3.88,1.14c3.04,1.62,6.21,3.02,9.5,4.17
		c0.27-0.53,0.56-1.05,0.89-1.56c6.96,1.25,14.23,1.92,21.7,1.92c7.48,0,14.74-0.68,21.7-1.92c0.33,0.51,0.62,1.03,0.89,1.56
		c3.29-1.16,6.46-2.55,9.5-4.17c-1.32-0.32-2.62-0.7-3.89-1.14C158.57,193.49,157.37,193.01,156.2,192.46"/>
	<path class="st2" d="M131.59,200.56c-7.47,0-14.73-0.68-21.7-1.92c-0.33,0.51-0.62,1.03-0.89,1.56c2.14,0.75,4.32,1.4,6.55,1.94
		c5.15,1.25,10.52,1.92,16.04,1.92c5.53,0,10.89-0.68,16.04-1.92c2.23-0.54,4.41-1.19,6.55-1.94c-0.27-0.53-0.56-1.05-0.89-1.56
		C146.33,199.88,139.07,200.56,131.59,200.56"/>
	<path class="st2" d="M146.8,188.62h-30.4C124.8,192.82,138.4,192.82,146.8,188.62"/>
	<path class="st2" d="M161.87,73.69c4.73-6.63,7.53-14.73,7.53-23.47h-5.59c0,7.94-2.67,15.27-7.16,21.14
		c-7.76-3.07-16.21-4.77-25.05-4.77c-3.45,0-6.84,0.26-10.16,0.76c-3.25-10.11-10.43-18.94-20.7-23.97l-2.46,5.02
		c8.63,4.22,14.74,11.57,17.64,20.01c-27.66,6.53-48.87,29.95-52.12,58.73c1-0.91,2.06-1.77,3.16-2.57
		c1.04-0.76,2.11-1.48,3.23-2.14c4.84-23.97,23.4-43.03,47.11-48.59c1.2,6.98,0.31,14.39-3.03,21.22l5.02,2.46
		c3.89-7.96,4.92-16.58,3.5-24.71c2.88-0.41,5.82-0.63,8.81-0.63c7.36,0,14.42,1.29,20.99,3.63c-6.22,5.75-14.53,9.28-23.66,9.28
		v5.59c11.5,0,21.89-4.83,29.27-12.57c17.67,8.32,30.86,24.67,34.82,44.32c1.11,0.66,2.19,1.37,3.23,2.13
		c1.09,0.8,2.15,1.66,3.16,2.57C196.75,103.67,182.16,83.78,161.87,73.69"/>
</g>
<path class="st2" d="M131.6,199.55c-7.47,0-14.73-0.93-21.7-2.66c-0.33,0.7-0.62,1.42-0.89,2.15c2.14,1.04,4.32,1.94,6.55,2.68
	c5.15,1.72,10.51,4.25,16.04,4.25c5.53,0,10.89-2.53,16.04-4.25c2.23-0.75,4.41-1.64,6.55-2.68c-0.27-0.73-0.56-1.45-0.89-2.16
	C146.33,198.61,139.07,199.55,131.6,199.55"/>
</svg>
