<?xml version="1.0"?>
<svg width="477.867" height="477.867" xmlns="http://www.w3.org/2000/svg" xmlns:svg="http://www.w3.org/2000/svg">
 <g class="layer">
  <title>Layer 1</title>
  <g id="svg_1">
   <g id="svg_2">
    <path d="m238.933,0c-131.959,0 -238.933,106.974 -238.933,238.933s106.974,238.933 238.933,238.933s238.933,-106.974 238.933,-238.933c-0.14,-131.9 -107.032,-238.792 -238.933,-238.933zm0,443.733c-113.108,0 -204.8,-91.692 -204.8,-204.8s91.692,-204.8 204.8,-204.8s204.8,91.692 204.8,204.8c-0.122,113.058 -91.742,204.678 -204.8,204.8z" fill="#079b00" id="svg_3"/>
   </g>
  </g>
  <g id="svg_4">
   <g id="svg_5">
    <path d="m339.557,231.32c-1.654,-3.318 -4.343,-6.008 -7.662,-7.662l-136.533,-68.267c-8.432,-4.213 -18.682,-0.794 -22.896,7.638c-1.185,2.371 -1.801,4.986 -1.8,7.637l0,136.534c-0.004,9.426 7.633,17.07 17.059,17.075c2.651,0.001 5.266,-0.615 7.637,-1.8l136.533,-68.267c8.436,-4.204 11.867,-14.452 7.662,-22.888zm-134.757,48.266l0,-81.306l81.306,40.653l-81.306,40.653z" fill="#079b00" id="svg_6" stroke="#079b00"/>
   </g>
  </g>
  <g id="svg_7"/>
  <g id="svg_8"/>
  <g id="svg_9"/>
  <g id="svg_10"/>
  <g id="svg_11"/>
  <g id="svg_12"/>
  <g id="svg_13"/>
  <g id="svg_14"/>
  <g id="svg_15"/>
  <g id="svg_16"/>
  <g id="svg_17"/>
  <g id="svg_18"/>
  <g id="svg_19"/>
  <g id="svg_20"/>
  <g id="svg_21"/>
 </g>
</svg>